<svg width="20" height="20" viewBox="0 0 20 20" fill="none" xmlns="http://www.w3.org/2000/svg">
<path d="M18.7834 5.35001C18.6844 4.95452 18.4828 4.59215 18.1989 4.29952C17.915 4.00688 17.559 3.79433 17.1667 3.68334C15.7334 3.33334 10 3.33334 10 3.33334C10 3.33334 4.2667 3.33334 2.83336 3.71668C2.44107 3.82766 2.08501 4.04021 1.80115 4.33285C1.51729 4.62549 1.31569 4.98785 1.2167 5.38334C0.954374 6.83797 0.826059 8.3136 0.833362 9.79168C0.824012 11.2809 0.952335 12.7678 1.2167 14.2333C1.32583 14.6165 1.53195 14.9651 1.81515 15.2454C2.09835 15.5257 2.44905 15.7282 2.83336 15.8333C4.2667 16.2167 10 16.2167 10 16.2167C10 16.2167 15.7334 16.2167 17.1667 15.8333C17.559 15.7224 17.915 15.5098 18.1989 15.2172C18.4828 14.9245 18.6844 14.5622 18.7834 14.1667C19.0437 12.723 19.172 11.2586 19.1667 9.79168C19.176 8.30247 19.0477 6.81559 18.7834 5.35001V5.35001Z" stroke="#F9F9F9" stroke-linecap="round" stroke-linejoin="round"/>
<path d="M8.125 12.5167L12.9167 9.79165L8.125 7.06665V12.5167Z" stroke="#F9F9F9" stroke-linecap="round" stroke-linejoin="round"/>
</svg>
