<svg width="20" height="20" viewBox="0 0 20 20" fill="none" xmlns="http://www.w3.org/2000/svg">
<path d="M14.1666 1.66666H5.83329C3.53211 1.66666 1.66663 3.53214 1.66663 5.83332V14.1667C1.66663 16.4678 3.53211 18.3333 5.83329 18.3333H14.1666C16.4678 18.3333 18.3333 16.4678 18.3333 14.1667V5.83332C18.3333 3.53214 16.4678 1.66666 14.1666 1.66666Z" stroke="#F9F9F9" stroke-linecap="round" stroke-linejoin="round"/>
<path d="M13.3334 9.47501C13.4362 10.1685 13.3178 10.8769 12.9948 11.4992C12.6719 12.1215 12.161 12.6262 11.5347 12.9414C10.9085 13.2566 10.1987 13.3663 9.50653 13.255C8.81431 13.1436 8.17484 12.8167 7.67907 12.321C7.1833 11.8252 6.85648 11.1857 6.7451 10.4935C6.63371 9.8013 6.74343 9.09159 7.05865 8.46532C7.37386 7.83905 7.87853 7.32812 8.50086 7.00521C9.12319 6.68229 9.8315 6.56383 10.525 6.66667C11.2325 6.77158 11.8874 7.10123 12.3931 7.60693C12.8988 8.11263 13.2285 8.76757 13.3334 9.47501Z" stroke="#F9F9F9" stroke-linecap="round" stroke-linejoin="round"/>
<path d="M14.5834 5.41666H14.5917" stroke="#F9F9F9" stroke-linecap="round" stroke-linejoin="round"/>
</svg>
